<svg width="86" height="187" viewBox="0 0 86 187" fill="none" xmlns="http://www.w3.org/2000/svg">
<path d="M85.8868 93L83 90.1132L80.1132 93L83 95.8868L85.8868 93ZM83 93V92.5H82V93V93.5H83V93ZM80 93V92.5H78V93V93.5H80V93ZM76 93V92.5H74V93V93.5H76V93ZM72 93V92.5H70V93V93.5H72V93ZM68 93V92.5H66V93V93.5H68V93ZM64 93V92.5H62V93V93.5H64V93ZM60 93V92.5H58V93V93.5H60V93ZM56 93V92.5H54V93V93.5H56V93ZM52 93V92.5H50V93V93.5H52V93ZM48 93V92.5H46V93V93.5H48V93ZM44 93V92.5H42V93V93.5H44V93ZM40 93V92.5H38V93V93.5H40V93ZM36 93V92.5H34V93V93.5H36V93ZM32 93V92.5H30V93V93.5H32V93ZM28 93V92.5H26V93V93.5H28V93ZM24 93V92.5H23V93V93.5H24V93Z" fill="#B0905A"/>
<path d="M0.113249 3L3 5.88675L5.88675 3L3 0.113249L0.113249 3ZM23 3L23.5 3V2.5L23 2.5V3ZM23 184L23 184.5H23.5L23.5 184H23ZM0.554425 184L3.44118 186.887L6.32793 184L3.44118 181.113L0.554425 184ZM3 3L3 3.5L4 3.5L4 3L4 2.5L3 2.5L3 3ZM6 3L6 3.5L8 3.5L8 3V2.5L6 2.5L6 3ZM10 3V3.5L12 3.5V3V2.5L10 2.5V3ZM14 3V3.5L16 3.5V3V2.5L14 2.5V3ZM18 3V3.5L20 3.5V3V2.5L18 2.5V3ZM22 3V3.5L23 3.5V3V2.5L22 2.5V3ZM23 3L22.5 3V4.00556H23L23.5 4.00556V3L23 3ZM23 6.01667H22.5L22.5 8.02778L23 8.02778H23.5L23.5 6.01667L23 6.01667ZM23 10.0389L22.5 10.0389L22.5 12.05H23L23.5 12.05L23.5 10.0389H23ZM23 14.0611H22.5L22.5 16.0722H23H23.5L23.5 14.0611L23 14.0611ZM23 18.0833H22.5L22.5 20.0944L23 20.0944H23.5L23.5 18.0833H23ZM23 22.1056L22.5 22.1056L22.5 24.1167L23 24.1167H23.5L23.5 22.1056H23ZM23 26.1278L22.5 26.1278L22.5 28.1389L23 28.1389H23.5L23.5 26.1278H23ZM23 30.15L22.5 30.15L22.5 32.1611L23 32.1611H23.5L23.5 30.15H23ZM23 34.1722L22.5 34.1722L22.5 36.1833H23H23.5L23.5 34.1722H23ZM23 38.1944H22.5L22.5 40.2056H23H23.5L23.5 38.1944H23ZM23 42.2167H22.5L22.5 44.2278H23H23.5L23.5 42.2167H23ZM23 46.2389H22.5L22.5 48.25H23H23.5L23.5 46.2389H23ZM23 50.2611H22.5L22.5 52.2722H23H23.5L23.5 50.2611H23ZM23 54.2833H22.5L22.5 56.2944H23H23.5L23.5 54.2833H23ZM23 58.3056H22.5L22.5 60.3167H23H23.5L23.5 58.3056H23ZM23 62.3278H22.5L22.5 64.3389H23H23.5L23.5 62.3278H23ZM23 66.35H22.5L22.5 68.3611H23H23.5L23.5 66.35H23ZM23 70.3722H22.5V72.3833H23H23.5V70.3722H23ZM23 74.3944H22.5L22.5 76.4056H23H23.5L23.5 74.3944H23ZM23 78.4167H22.5L22.5 80.4278H23H23.5L23.5 78.4167H23ZM23 82.4389H22.5L22.5 84.45H23H23.5L23.5 82.4389H23ZM23 86.4611H22.5L22.5 88.4722H23H23.5L23.5 86.4611H23ZM23 90.4833H22.5L22.5 92.4944H23H23.5L23.5 90.4833H23ZM23 94.5055H22.5L22.5 96.5166H23H23.5L23.5 94.5055H23ZM23 98.5277H22.5L22.5 100.539H23H23.5L23.5 98.5277H23ZM23 102.55H22.5L22.5 104.561H23H23.5L23.5 102.55H23ZM23 106.572H22.5L22.5 108.583H23H23.5L23.5 106.572H23ZM23 110.594H22.5L22.5 112.606H23H23.5L23.5 110.594H23ZM23 114.617H22.5L22.5 116.628H23H23.5L23.5 114.617H23ZM23 118.639H22.5L22.5 120.65H23H23.5L23.5 118.639H23ZM23 122.661H22.5L22.5 124.672H23H23.5L23.5 122.661H23ZM23 126.683H22.5L22.5 128.694H23H23.5L23.5 126.683H23ZM23 130.705H22.5L22.5 132.717H23H23.5L23.5 130.705H23ZM23 134.728H22.5L22.5 136.739H23H23.5L23.5 134.728H23ZM23 138.75H22.5L22.5 140.761H23H23.5L23.5 138.75H23ZM23 142.772H22.5L22.5 144.783H23H23.5L23.5 142.772H23ZM23 146.794H22.5L22.5 148.805H23H23.5L23.5 146.794H23ZM23 150.817H22.5L22.5 152.828H23H23.5L23.5 150.817H23ZM23 154.839H22.5L22.5 156.85H23H23.5L23.5 154.839H23ZM23 158.861H22.5L22.5 160.872H23H23.5L23.5 158.861H23ZM23 162.883H22.5L22.5 164.894H23H23.5L23.5 162.883H23ZM23 166.905H22.5L22.5 168.917H23H23.5L23.5 166.905H23ZM23 170.928H22.5L22.5 172.939H23H23.5L23.5 170.928H23ZM23 174.95H22.5L22.5 176.961H23H23.5L23.5 174.95H23ZM23 178.972H22.5L22.5 180.983H23H23.5L23.5 178.972H23ZM23 182.994H22.5V184H23H23.5V182.994H23ZM23 184V183.5H22.0221V184L22.0221 184.5H23L23 184ZM20.0662 184V183.5H18.1103L18.1103 184V184.5H20.0662L20.0662 184ZM16.1544 184L16.1544 183.5H14.1985L14.1985 184V184.5H16.1544V184ZM12.2426 184L12.2426 183.5L10.2868 183.5L10.2868 184V184.5L12.2426 184.5V184ZM8.33088 184L8.33088 183.5H6.375L6.375 184V184.5H8.33088V184ZM4.41912 184L4.41912 183.5H3.44118L3.44118 184L3.44118 184.5H4.41912V184ZM0.113249 3L3 5.88675L5.88675 3L3 0.113249L0.113249 3ZM23 3L23.5 3V2.5L23 2.5V3ZM23 184L23 184.5H23.5L23.5 184H23ZM0.554425 184L3.44118 186.887L6.32793 184L3.44118 181.113L0.554425 184ZM3 3L3 3.5L4 3.5L4 3L4 2.5L3 2.5L3 3ZM6 3L6 3.5L8 3.5L8 3V2.5L6 2.5L6 3ZM10 3V3.5L12 3.5V3V2.5L10 2.5V3ZM14 3V3.5L16 3.5V3V2.5L14 2.5V3ZM18 3V3.5L20 3.5V3V2.5L18 2.5V3ZM22 3V3.5L23 3.5V3V2.5L22 2.5V3ZM23 3L22.5 3V4.00556H23L23.5 4.00556V3L23 3ZM23 6.01667H22.5L22.5 8.02778L23 8.02778H23.5L23.5 6.01667L23 6.01667ZM23 10.0389L22.5 10.0389L22.5 12.05H23L23.5 12.05L23.5 10.0389H23ZM23 14.0611H22.5L22.5 16.0722H23H23.5L23.5 14.0611L23 14.0611ZM23 18.0833H22.5L22.5 20.0944L23 20.0944H23.5L23.5 18.0833H23ZM23 22.1056L22.5 22.1056L22.5 24.1167L23 24.1167H23.5L23.5 22.1056H23ZM23 26.1278L22.5 26.1278L22.5 28.1389L23 28.1389H23.5L23.5 26.1278H23ZM23 30.15L22.5 30.15L22.5 32.1611L23 32.1611H23.5L23.5 30.15H23ZM23 34.1722L22.5 34.1722L22.5 36.1833H23H23.5L23.5 34.1722H23ZM23 38.1944H22.5L22.5 40.2056H23H23.5L23.5 38.1944H23ZM23 42.2167H22.5L22.5 44.2278H23H23.5L23.5 42.2167H23ZM23 46.2389H22.5L22.5 48.25H23H23.5L23.5 46.2389H23ZM23 50.2611H22.5L22.5 52.2722H23H23.5L23.5 50.2611H23ZM23 54.2833H22.5L22.5 56.2944H23H23.5L23.5 54.2833H23ZM23 58.3056H22.5L22.5 60.3167H23H23.5L23.5 58.3056H23ZM23 62.3278H22.5L22.5 64.3389H23H23.5L23.5 62.3278H23ZM23 66.35H22.5L22.5 68.3611H23H23.5L23.5 66.35H23ZM23 70.3722H22.5V72.3833H23H23.5V70.3722H23ZM23 74.3944H22.5L22.5 76.4056H23H23.5L23.5 74.3944H23ZM23 78.4167H22.5L22.5 80.4278H23H23.5L23.5 78.4167H23ZM23 82.4389H22.5L22.5 84.45H23H23.5L23.5 82.4389H23ZM23 86.4611H22.5L22.5 88.4722H23H23.5L23.5 86.4611H23ZM23 90.4833H22.5L22.5 92.4944H23H23.5L23.5 90.4833H23ZM23 94.5055H22.5L22.5 96.5166H23H23.5L23.5 94.5055H23ZM23 98.5277H22.5L22.5 100.539H23H23.5L23.5 98.5277H23ZM23 102.55H22.5L22.5 104.561H23H23.5L23.5 102.55H23ZM23 106.572H22.5L22.5 108.583H23H23.5L23.5 106.572H23ZM23 110.594H22.5L22.5 112.606H23H23.5L23.5 110.594H23ZM23 114.617H22.5L22.5 116.628H23H23.5L23.5 114.617H23ZM23 118.639H22.5L22.5 120.65H23H23.5L23.5 118.639H23ZM23 122.661H22.5L22.5 124.672H23H23.5L23.5 122.661H23ZM23 126.683H22.5L22.5 128.694H23H23.5L23.5 126.683H23ZM23 130.705H22.5L22.5 132.717H23H23.5L23.5 130.705H23ZM23 134.728H22.5L22.5 136.739H23H23.5L23.5 134.728H23ZM23 138.75H22.5L22.5 140.761H23H23.5L23.5 138.75H23ZM23 142.772H22.5L22.5 144.783H23H23.5L23.5 142.772H23ZM23 146.794H22.5L22.5 148.805H23H23.5L23.5 146.794H23ZM23 150.817H22.5L22.5 152.828H23H23.5L23.5 150.817H23ZM23 154.839H22.5L22.5 156.85H23H23.5L23.5 154.839H23ZM23 158.861H22.5L22.5 160.872H23H23.5L23.5 158.861H23ZM23 162.883H22.5L22.5 164.894H23H23.5L23.5 162.883H23ZM23 166.905H22.5L22.5 168.917H23H23.5L23.5 166.905H23ZM23 170.928H22.5L22.5 172.939H23H23.5L23.5 170.928H23ZM23 174.95H22.5L22.5 176.961H23H23.5L23.5 174.95H23ZM23 178.972H22.5L22.5 180.983H23H23.5L23.5 178.972H23ZM23 182.994H22.5V184H23H23.5V182.994H23ZM23 184V183.5H22.0221V184L22.0221 184.5H23L23 184ZM20.0662 184V183.5H18.1103L18.1103 184V184.5H20.0662L20.0662 184ZM16.1544 184L16.1544 183.5H14.1985L14.1985 184V184.5H16.1544V184ZM12.2426 184L12.2426 183.5L10.2868 183.5L10.2868 184V184.5L12.2426 184.5V184ZM8.33088 184L8.33088 183.5H6.375L6.375 184V184.5H8.33088V184ZM4.41912 184L4.41912 183.5H3.44118L3.44118 184L3.44118 184.5H4.41912V184Z" fill="#B0905A"/>
<path d="M0.113249 123L3 120.113L5.88675 123L3 125.887L0.113249 123ZM23 123V123.5H22V123V122.5H23V123ZM20 123V123.5L18 123.5V123V122.5L20 122.5V123ZM16 123V123.5H14V123V122.5H16V123ZM12 123V123.5L10 123.5V123V122.5L12 122.5V123ZM8 123V123.5H6V123V122.5H8V123ZM4 123V123.5H3V123V122.5H4V123Z" fill="#B0905A"/>
<path d="M0.113249 63L3 60.1132L5.88675 63L3 65.8868L0.113249 63ZM23 63V63.5H22V63V62.5H23V63ZM20 63V63.5H18V63V62.5H20V63ZM16 63V63.5H14V63V62.5H16V63ZM12 63V63.5H10V63V62.5H12V63ZM8 63V63.5H6V63V62.5H8V63ZM4 63V63.5H3V63V62.5H4V63Z" fill="#B0905A"/>
<path d="M69.0625 146L49 92.5L69.0625 39" stroke="#B0905A" stroke-linecap="square"/>
</svg>
