<svg width="202" height="20" viewBox="0 0 202 20" fill="none" xmlns="http://www.w3.org/2000/svg">
<g clip-path="url(#clip0_7816_1970)">
<path d="M-0.0322266 16.0203V15.7003L1.58777 14.9003V3.94031L-0.0322266 3.14031V2.82031H13.3078V3.14031L11.6878 3.94031V14.9003L13.3078 15.7003V16.0203H8.02777V15.7003L9.60777 14.9003V3.92031H3.68777V14.9003L5.24777 15.7003V16.0203H-0.0322266Z" fill="#161619"/>
<path d="M21.67 15.0403C21.2433 15.5336 20.87 15.847 20.55 15.9803C20.2433 16.1136 19.9433 16.1803 19.65 16.1803C19.3966 16.1803 19.23 16.147 19.15 16.0803C19.0833 16.0136 19.05 15.887 19.05 15.7003V14.5603L19.15 14.4803H19.33C19.9566 14.4803 20.4433 14.3736 20.79 14.1603C21.1366 13.947 21.4566 13.607 21.75 13.1403L17.43 5.76031L16.13 5.14031V4.82031H20.97V5.14031L19.45 5.74031L22.61 11.1403H22.91L25.79 5.70031L24.33 5.14031V4.82031H28.07V5.14031L26.91 5.72031L23.25 12.5003C22.9566 13.0336 22.67 13.527 22.39 13.9803C22.1233 14.4336 21.8833 14.787 21.67 15.0403Z" fill="#161619"/>
<path d="M35.3039 4.82031V5.14031L33.8639 5.80031V15.0203H38.0039V5.80031L36.6239 5.14031V4.82031H41.4239V5.14031L39.9839 5.80031V15.0203H44.1239V5.80031L42.6839 5.14031V4.82031H47.5439V5.14031L46.1039 5.80031V15.0403L47.5239 15.7003V16.0203H30.4639V15.7003L31.8839 15.0403V5.80031L30.4639 5.14031V4.82031H35.3039Z" fill="#161619"/>
<path d="M50.9365 16.0203V15.7003L52.3965 15.0403V5.80031L50.9365 5.14031V4.82031H55.8165V5.14031L54.3765 5.80031V15.0403L55.8165 15.7003V16.0203H50.9365ZM59.7365 16.0203L54.3765 10.3203L59.0165 5.70031L57.7565 5.14031V4.82031H61.7765V5.14031L60.6365 5.58031L56.3365 9.70031L61.4965 15.1603L62.8965 15.7003V16.0203H59.7365Z" fill="#161619"/>
<path d="M65.7061 16.0203V15.7003L67.1461 15.0403V5.80031L65.7061 5.14031V4.82031H70.5861V5.14031L69.1261 5.80031V13.1803L74.9461 6.50031V5.80031L73.4861 5.14031V4.82031H78.3461V5.14031L76.9261 5.80031V15.0403L78.3461 15.7003V16.0203H73.4861V15.7003L74.9461 15.0403V7.76031L69.1261 14.4403V15.0403L70.5861 15.7003V16.0203H65.7061Z" fill="#161619"/>
<path d="M81.7451 16.0203V15.7003L83.1851 15.0403V5.80031L81.7451 5.14031V4.82031H86.6251V5.14031L85.1651 5.80031V9.72031H90.8051V5.80031L89.3451 5.14031V4.82031H94.1851V5.14031L92.7851 5.80031V15.0403L94.1851 15.7003V16.0203H89.3451V15.7003L90.8051 15.0403V10.7203H85.1651V15.0403L86.6251 15.7003V16.0203H81.7451Z" fill="#161619"/>
<path d="M107.239 15.6526L106.357 16.0446L102.185 9.52059L106.357 3.01059L107.239 3.40259L103.319 9.52059L107.239 15.6526Z" fill="#B0905A"/>
<path d="M117.661 14.8406H110.269V5.06859H111.445V13.8046H116.191V5.06859H117.367V13.8046H118.739V16.9406H117.661V14.8406Z" fill="#B0905A"/>
<path d="M121.496 5.06859H122.644V11.2006L122.532 13.2026H122.574L123.554 11.4386L127.726 5.06859H128.79V14.8406H127.642V8.70859L127.754 6.70659H127.712L126.732 8.47059L122.56 14.8406H121.496V5.06859Z" fill="#B0905A"/>
<path d="M136.412 13.9866H135.978C135.315 13.9866 134.723 13.8839 134.2 13.6786C133.687 13.4733 133.248 13.1933 132.884 12.8386C132.529 12.4839 132.259 12.0639 132.072 11.5786C131.885 11.0839 131.792 10.5473 131.792 9.96859C131.792 9.39926 131.885 8.86726 132.072 8.37259C132.268 7.87793 132.543 7.45326 132.898 7.09859C133.262 6.74393 133.701 6.46393 134.214 6.25859C134.737 6.05326 135.329 5.95059 135.992 5.95059H136.412V4.69059H137.588V5.95059H138.008C138.661 5.95059 139.249 6.05326 139.772 6.25859C140.295 6.46393 140.733 6.74393 141.088 7.09859C141.452 7.45326 141.727 7.87793 141.914 8.37259C142.11 8.86726 142.208 9.39926 142.208 9.96859C142.208 10.5473 142.11 11.0839 141.914 11.5786C141.727 12.0639 141.452 12.4839 141.088 12.8386C140.733 13.1933 140.295 13.4733 139.772 13.6786C139.249 13.8839 138.661 13.9866 138.008 13.9866H137.588V15.2466H136.412V13.9866ZM136.44 13.0066V6.93059H135.992C135.553 6.93059 135.152 6.99593 134.788 7.12659C134.433 7.25726 134.125 7.43926 133.864 7.67259C133.603 7.90593 133.402 8.18126 133.262 8.49859C133.122 8.81593 133.052 9.16126 133.052 9.53459V10.4026C133.052 10.7759 133.122 11.1213 133.262 11.4386C133.402 11.7559 133.598 12.0313 133.85 12.2646C134.111 12.4979 134.419 12.6799 134.774 12.8106C135.138 12.9413 135.539 13.0066 135.978 13.0066H136.44ZM138.008 13.0066C138.447 13.0066 138.843 12.9413 139.198 12.8106C139.562 12.6799 139.875 12.4979 140.136 12.2646C140.397 12.0313 140.598 11.7559 140.738 11.4386C140.878 11.1213 140.948 10.7759 140.948 10.4026V9.53459C140.948 9.16126 140.878 8.81593 140.738 8.49859C140.598 8.18126 140.397 7.90593 140.136 7.67259C139.875 7.43926 139.562 7.25726 139.198 7.12659C138.843 6.99593 138.447 6.93059 138.008 6.93059H137.56V13.0066H138.008Z" fill="#B0905A"/>
<path d="M145.207 14.8406V5.06859H149.099C149.976 5.06859 150.648 5.32059 151.115 5.82459C151.591 6.31926 151.829 7.00059 151.829 7.86859C151.829 8.73659 151.591 9.42259 151.115 9.92659C150.648 10.4213 149.976 10.6686 149.099 10.6686H146.383V14.8406H145.207ZM146.383 9.63259H149.099C149.565 9.63259 149.925 9.51126 150.177 9.26859C150.438 9.02593 150.569 8.68059 150.569 8.23259V7.50459C150.569 7.05659 150.438 6.71126 150.177 6.46859C149.925 6.22593 149.565 6.10459 149.099 6.10459H146.383V9.63259Z" fill="#B0905A"/>
<path d="M158.351 15.0086C157.716 15.0086 157.142 14.9013 156.629 14.6866C156.125 14.4626 155.691 14.1406 155.327 13.7206C154.972 13.2913 154.697 12.7639 154.501 12.1386C154.305 11.5039 154.207 10.7759 154.207 9.95459C154.207 9.13326 154.305 8.40993 154.501 7.78459C154.697 7.15926 154.972 6.63193 155.327 6.20259C155.691 5.77326 156.125 5.45126 156.629 5.23659C157.142 5.01259 157.716 4.90059 158.351 4.90059C158.976 4.90059 159.545 5.01259 160.059 5.23659C160.572 5.45126 161.006 5.77326 161.361 6.20259C161.725 6.63193 162.005 7.15926 162.201 7.78459C162.397 8.40993 162.495 9.13326 162.495 9.95459C162.495 10.7759 162.397 11.5039 162.201 12.1386C162.005 12.7639 161.725 13.2913 161.361 13.7206C161.006 14.1406 160.572 14.4626 160.059 14.6866C159.545 14.9013 158.976 15.0086 158.351 15.0086ZM158.351 13.9586C158.771 13.9586 159.158 13.8839 159.513 13.7346C159.867 13.5853 160.171 13.3706 160.423 13.0906C160.684 12.8106 160.885 12.4746 161.025 12.0826C161.165 11.6906 161.235 11.2519 161.235 10.7666V9.14259C161.235 8.65726 161.165 8.21859 161.025 7.82659C160.885 7.43459 160.684 7.09859 160.423 6.81859C160.171 6.53859 159.867 6.32393 159.513 6.17459C159.158 6.02526 158.771 5.95059 158.351 5.95059C157.931 5.95059 157.543 6.02526 157.189 6.17459C156.834 6.32393 156.526 6.53859 156.265 6.81859C156.013 7.09859 155.817 7.43459 155.677 7.82659C155.537 8.21859 155.467 8.65726 155.467 9.14259V10.7666C155.467 11.2519 155.537 11.6906 155.677 12.0826C155.817 12.4746 156.013 12.8106 156.265 13.0906C156.526 13.3706 156.834 13.5853 157.189 13.7346C157.543 13.8839 157.931 13.9586 158.351 13.9586Z" fill="#B0905A"/>
<path d="M165.609 5.06859H169.627C170.439 5.06859 171.074 5.29726 171.531 5.75459C171.998 6.21193 172.231 6.82326 172.231 7.58859C172.231 7.95259 172.18 8.26059 172.077 8.51259C171.974 8.76459 171.844 8.97459 171.685 9.14259C171.526 9.30126 171.354 9.42259 171.167 9.50659C170.98 9.58126 170.808 9.63259 170.649 9.66059V9.74459C170.826 9.75393 171.022 9.80059 171.237 9.88459C171.461 9.96859 171.671 10.1039 171.867 10.2906C172.063 10.4679 172.226 10.7013 172.357 10.9906C172.497 11.2706 172.567 11.6113 172.567 12.0126C172.567 12.4139 172.502 12.7873 172.371 13.1326C172.25 13.4779 172.077 13.7766 171.853 14.0286C171.629 14.2806 171.363 14.4813 171.055 14.6306C170.747 14.7706 170.411 14.8406 170.047 14.8406H165.609V5.06859ZM166.785 13.8046H169.683C170.187 13.8046 170.584 13.6786 170.873 13.4266C171.162 13.1653 171.307 12.7873 171.307 12.2926V11.8166C171.307 11.3219 171.162 10.9486 170.873 10.6966C170.584 10.4353 170.187 10.3046 169.683 10.3046H166.785V13.8046ZM166.785 9.29659H169.487C169.954 9.29659 170.318 9.17993 170.579 8.94659C170.84 8.71326 170.971 8.37726 170.971 7.93859V7.46259C170.971 7.02393 170.84 6.68793 170.579 6.45459C170.318 6.22126 169.954 6.10459 169.487 6.10459H166.785V9.29659Z" fill="#B0905A"/>
<path d="M179.409 15.0086C178.775 15.0086 178.201 14.9013 177.687 14.6866C177.183 14.4626 176.749 14.1406 176.385 13.7206C176.031 13.2913 175.755 12.7639 175.559 12.1386C175.363 11.5039 175.265 10.7759 175.265 9.95459C175.265 9.13326 175.363 8.40993 175.559 7.78459C175.755 7.15926 176.031 6.63193 176.385 6.20259C176.749 5.77326 177.183 5.45126 177.687 5.23659C178.201 5.01259 178.775 4.90059 179.409 4.90059C180.035 4.90059 180.604 5.01259 181.117 5.23659C181.631 5.45126 182.065 5.77326 182.419 6.20259C182.783 6.63193 183.063 7.15926 183.259 7.78459C183.455 8.40993 183.553 9.13326 183.553 9.95459C183.553 10.7759 183.455 11.5039 183.259 12.1386C183.063 12.7639 182.783 13.2913 182.419 13.7206C182.065 14.1406 181.631 14.4626 181.117 14.6866C180.604 14.9013 180.035 15.0086 179.409 15.0086ZM179.409 13.9586C179.829 13.9586 180.217 13.8839 180.571 13.7346C180.926 13.5853 181.229 13.3706 181.481 13.0906C181.743 12.8106 181.943 12.4746 182.083 12.0826C182.223 11.6906 182.293 11.2519 182.293 10.7666V9.14259C182.293 8.65726 182.223 8.21859 182.083 7.82659C181.943 7.43459 181.743 7.09859 181.481 6.81859C181.229 6.53859 180.926 6.32393 180.571 6.17459C180.217 6.02526 179.829 5.95059 179.409 5.95059C178.989 5.95059 178.602 6.02526 178.247 6.17459C177.893 6.32393 177.585 6.53859 177.323 6.81859C177.071 7.09859 176.875 7.43459 176.735 7.82659C176.595 8.21859 176.525 8.65726 176.525 9.14259V10.7666C176.525 11.2519 176.595 11.6906 176.735 12.0826C176.875 12.4746 177.071 12.8106 177.323 13.0906C177.585 13.3706 177.893 13.5853 178.247 13.7346C178.602 13.8839 178.989 13.9586 179.409 13.9586Z" fill="#B0905A"/>
<path d="M186.667 5.06859H187.815V11.2006L187.703 13.2026H187.745L188.725 11.4386L192.897 5.06859H193.961V14.8406H192.813V8.70859L192.925 6.70659H192.883L191.903 8.47059L187.731 14.8406H186.667V5.06859ZM190.279 4.11659C189.775 4.11659 189.374 4.01859 189.075 3.82259C188.777 3.61726 188.539 3.35126 188.361 3.02459L188.081 2.49259L189.061 2.05859L189.551 3.20659C189.663 3.23459 189.785 3.25793 189.915 3.27659C190.046 3.28593 190.167 3.29059 190.279 3.29059C190.391 3.29059 190.513 3.28593 190.643 3.27659C190.774 3.25793 190.896 3.23459 191.007 3.20659L191.497 2.05859L192.477 2.49259L192.197 3.02459C192.02 3.35126 191.782 3.61726 191.483 3.82259C191.185 4.01859 190.783 4.11659 190.279 4.11659Z" fill="#B0905A"/>
<path d="M196.978 15.6526L200.898 9.52059L196.978 3.40259L197.86 3.01059L202.032 9.52059L197.86 16.0446L196.978 15.6526Z" fill="#B0905A"/>
</g>
<defs>
<clipPath id="clip0_7816_1970">
<rect width="202" height="20" fill="white"/>
</clipPath>
</defs>
</svg>
